<?xml version="1.0" standalone="no"?>
<!DOCTYPE svg PUBLIC "-//W3C//DTD SVG 20010904//EN"
 "http://www.w3.org/TR/2001/REC-SVG-20010904/DTD/svg10.dtd">
<svg version="1.0" xmlns="http://www.w3.org/2000/svg"
 width="1417.000000pt" height="1417.000000pt" viewBox="0 0 1417.000000 1417.000000"
 preserveAspectRatio="xMidYMid meet">
<metadata>
Created by potrace 1.14, written by Peter Selinger 2001-2017
</metadata>
<g transform="translate(0.000000,1417.000000) scale(0.100000,-0.100000)"
fill="#000000" stroke="none">
<path d="M6874 12926 c-31 -56 -101 -187 -155 -292 -94 -185 -98 -197 -128
-339 -18 -82 -34 -164 -37 -184 -3 -20 -21 -106 -41 -191 -19 -85 -45 -204
-58 -265 -13 -60 -38 -166 -55 -235 -18 -69 -33 -132 -35 -140 -2 -8 -17 -71
-35 -139 -17 -69 -52 -228 -77 -355 -25 -127 -47 -240 -49 -251 -2 -11 -8 -42
-14 -70 -5 -27 -12 -61 -15 -75 -7 -34 -23 -119 -30 -155 -9 -49 -63 -366 -69
-410 -4 -22 -11 -65 -16 -95 -5 -30 -12 -73 -15 -95 -3 -22 -10 -65 -15 -95
-8 -48 -32 -195 -46 -285 -4 -30 -10 -59 -20 -105 -3 -14 -7 -36 -10 -50 -3
-14 -14 -62 -24 -108 -11 -46 -22 -98 -26 -115 -3 -18 -23 -113 -45 -212 -44
-196 -52 -236 -105 -520 -51 -272 -93 -496 -99 -525 -2 -13 -7 -42 -10 -65 -4
-22 -17 -110 -31 -195 -14 -85 -27 -168 -29 -185 -3 -16 -12 -70 -20 -120 -12
-74 -62 -384 -81 -500 -2 -16 -6 -41 -9 -55 -3 -14 -7 -38 -10 -55 -3 -16 -7
-40 -9 -51 -2 -12 -7 -37 -10 -55 -8 -53 -53 -285 -71 -374 -10 -44 -19 -89
-21 -100 -9 -45 -13 -63 -33 -137 -37 -136 -59 -221 -85 -318 -13 -52 -29
-107 -35 -122 -6 -16 -9 -28 -6 -28 2 0 0 -12 -5 -27 -5 -16 -14 -46 -19 -69
l-11 -41 -107 1 c-82 0 -116 -4 -141 -16 -31 -16 -37 -16 -80 -2 -49 17 -146
21 -203 9 -19 -4 -60 -21 -92 -37 -81 -41 -136 -39 -262 7 -125 45 -163 52
-340 59 -109 5 -159 -6 -226 -51 -32 -21 -45 -24 -85 -18 -26 3 -57 11 -68 17
-22 12 -135 15 -289 7 -65 -4 -128 0 -192 10 -52 9 -114 16 -137 16 l-43 -1
-46 91 c-57 113 -89 135 -206 139 -43 2 -92 -1 -110 -6 -29 -8 -36 -5 -58 17
-14 14 -27 25 -29 25 -2 0 -50 14 -107 31 -126 38 -141 41 -204 43 -74 3 -118
-9 -241 -69 -110 -52 -113 -54 -160 -125 l-49 -72 -145 -60 -145 -59 -100 2
c-55 1 -126 2 -159 1 -50 -1 -69 5 -138 41 -74 39 -87 42 -164 44 -54 1 -99
-3 -129 -14 -49 -16 -52 -15 -132 53 -74 64 -83 69 -143 80 -121 21 -202 0
-315 -81 -36 -25 -75 -45 -89 -45 l-26 0 0 -1340 0 -1340 23 -14 c38 -25 99
-36 238 -42 115 -5 148 -3 234 15 138 30 148 34 250 120 113 94 108 88 184
201 66 98 146 202 201 261 17 19 52 66 77 104 25 39 69 99 98 135 31 38 86
131 133 225 112 225 222 406 306 505 39 47 92 113 116 148 101 141 134 177
215 238 81 61 85 62 121 52 20 -5 75 -11 123 -12 118 -3 169 -28 231 -114 27
-38 82 -92 135 -135 125 -100 210 -186 296 -303 40 -54 76 -101 79 -104 3 -3
13 -21 22 -40 9 -19 38 -80 63 -135 72 -152 99 -214 124 -280 13 -33 27 -69
31 -80 4 -11 18 -47 30 -80 46 -126 64 -164 147 -312 80 -145 108 -212 198
-478 20 -61 56 -146 80 -190 23 -44 64 -120 90 -169 26 -49 56 -99 67 -110 50
-53 130 -180 171 -271 115 -255 133 -287 209 -367 l73 -76 262 -1 263 -1 88
133 c49 72 96 148 105 167 26 55 121 317 198 540 39 113 81 237 95 275 14 39
36 108 50 155 53 175 74 233 99 266 32 42 195 459 229 584 13 52 47 178 74
280 27 102 65 247 83 323 40 165 60 193 184 255 67 34 89 52 138 111 32 40 71
79 85 88 15 9 34 24 42 33 18 20 99 51 149 57 69 7 126 25 156 47 17 13 55 29
85 37 42 10 68 25 108 63 29 28 61 51 70 52 9 1 48 5 85 8 38 4 89 16 113 27
l44 21 67 -50 c38 -27 84 -55 104 -61 52 -17 137 -19 194 -6 52 12 115 43 115
57 0 9 71 -25 110 -52 14 -10 48 -26 76 -35 41 -13 53 -22 62 -48 6 -18 22
-43 34 -57 13 -14 54 -64 92 -112 59 -75 77 -91 120 -107 61 -23 181 -25 239
-5 22 8 42 13 43 11 2 -2 30 -61 63 -133 32 -71 99 -196 148 -279 l89 -150 93
-58 c112 -71 155 -85 252 -81 57 2 100 11 187 43 63 23 122 47 133 54 10 8 53
54 94 103 42 49 101 113 132 142 48 45 62 52 97 53 68 1 86 7 212 69 l121 59
74 133 74 133 88 51 c48 28 93 56 100 62 10 8 24 0 58 -31 25 -23 69 -62 99
-87 82 -69 93 -83 179 -234 70 -124 91 -150 162 -215 78 -72 84 -80 164 -240
177 -356 223 -439 289 -525 37 -50 72 -101 78 -115 5 -15 20 -37 33 -51 20
-21 76 -120 207 -360 75 -137 96 -172 171 -285 43 -66 88 -128 99 -138 12 -10
57 -50 100 -90 89 -80 124 -97 217 -101 78 -4 120 5 238 50 95 37 111 49 225
176 25 28 48 40 98 53 36 10 75 24 88 32 13 8 53 75 97 162 41 82 79 153 86
156 15 10 125 251 213 470 20 50 41 99 45 110 5 11 33 76 61 145 29 69 63 148
75 175 13 28 41 91 63 140 26 61 47 94 63 102 13 6 42 20 64 31 34 16 51 37
118 147 42 70 77 132 77 136 0 9 77 49 94 49 6 0 23 6 38 14 23 12 33 12 80
-4 29 -9 65 -20 81 -24 l27 -6 0 120 0 120 -26 6 -25 7 25 26 26 27 0 526 0
527 -29 -1 c-17 -1 -47 12 -76 33 -94 68 -111 73 -220 74 -77 0 -110 -4 -141
-18 -27 -12 -99 -77 -202 -181 -130 -132 -169 -166 -209 -181 -45 -17 -153
-86 -187 -121 -15 -14 -21 -14 -71 5 -31 12 -66 21 -78 21 -12 0 -36 8 -52 19
-17 10 -79 35 -139 55 -179 62 -286 53 -392 -33 l-58 -47 -90 21 c-127 30
-247 22 -301 -19 -29 -22 -48 -20 -128 15 -53 23 -93 32 -153 36 -89 6 -120
-1 -223 -50 -82 -39 -163 -43 -232 -10 -69 33 -130 53 -165 53 -16 0 -39 8
-50 18 -119 107 -165 142 -204 155 -29 9 -49 23 -58 40 -35 71 -104 89 -325
86 -158 -2 -175 -1 -207 18 -19 12 -46 24 -60 28 -14 4 -41 20 -60 35 -44 34
-121 60 -178 60 -56 0 -121 18 -147 41 -42 36 -114 51 -267 54 l-146 3 -63 50
c-34 28 -72 52 -83 54 -38 5 -83 131 -210 583 -25 88 -59 201 -77 250 -48 138
-162 543 -183 650 -1 6 -5 19 -9 30 -3 11 -8 31 -11 45 -3 14 -15 61 -26 105
-42 160 -83 340 -97 430 -2 17 -8 46 -13 65 -5 19 -12 55 -15 79 -3 23 -10 54
-16 67 -5 14 -8 28 -7 32 1 4 -1 21 -5 37 -4 17 -9 46 -12 65 -4 19 -10 53
-15 75 -6 22 -26 114 -45 204 -20 91 -38 167 -40 170 -1 3 -6 24 -9 46 -4 22
-15 77 -26 122 -11 46 -21 93 -24 105 -2 13 -12 55 -21 93 -18 78 -33 152 -41
205 -3 19 -7 42 -9 50 -2 8 -7 29 -10 46 -2 18 -16 99 -30 180 -14 82 -28 164
-31 183 -3 18 -8 43 -10 55 -2 11 -7 37 -9 56 -3 19 -8 46 -11 60 -3 13 -7 40
-10 60 -2 19 -6 42 -9 50 -2 8 -7 33 -11 55 -3 22 -8 43 -11 48 -2 4 -6 20 -9
35 -4 26 -17 88 -68 322 -35 162 -53 254 -66 340 -6 41 -13 91 -16 110 -3 19
-9 51 -14 70 -5 19 -12 55 -15 80 -4 24 -8 47 -10 50 -2 3 -6 23 -9 45 -3 22
-8 51 -11 65 -9 41 -14 67 -46 240 -27 147 -114 538 -139 630 -8 29 -29 124
-45 200 -2 8 -20 85 -40 170 -47 195 -101 424 -122 513 -15 68 -41 106 -72
108 -9 1 -127 2 -263 3 l-246 2 -58 -100z m366 -2856 c20 -39 112 -300 106
-300 -2 0 -28 11 -57 24 -30 13 -72 27 -95 31 l-41 6 9 52 c5 29 14 75 20 102
7 28 13 52 13 55 7 35 17 70 21 70 2 0 13 -18 24 -40z m-75 -540 c8 -16 15
-31 15 -33 0 -3 -18 -5 -40 -5 -23 -1 -40 4 -40 10 0 10 39 58 46 58 2 0 10
-13 19 -30z m36 -306 c31 -49 56 -90 55 -91 -4 -5 -107 -15 -149 -14 -65 1
-70 5 -61 55 3 22 8 52 10 66 5 28 60 83 77 77 7 -2 37 -44 68 -93z m-95 -722
c6 -4 41 -88 78 -187 37 -99 90 -235 118 -303 28 -67 49 -124 47 -127 -7 -6
-73 18 -163 60 -117 54 -207 66 -308 40 -16 -4 -28 -4 -28 0 0 8 123 349 145
402 14 32 84 123 95 123 3 0 10 -4 16 -8z m-29 -743 c62 -19 81 -32 132 -83
56 -57 68 -78 170 -302 60 -132 119 -261 131 -285 l22 -44 -38 36 c-50 46 -87
60 -166 63 -103 5 -152 -12 -270 -94 l-107 -74 -48 11 c-48 11 -154 10 -192
-2 -12 -3 -21 -3 -21 2 0 4 14 55 31 113 17 58 32 112 34 120 53 201 109 356
166 458 35 62 68 111 74 109 5 -3 42 -15 82 -28z m270 -988 c73 -83 101 -124
165 -248 42 -81 114 -211 160 -288 50 -85 101 -187 127 -255 24 -63 49 -128
56 -145 35 -84 55 -138 52 -141 -2 -2 -19 1 -38 6 -18 6 -50 10 -70 10 -31 0
-42 7 -85 57 -27 31 -54 61 -59 67 -6 6 -44 65 -85 130 -41 66 -83 127 -94
137 -10 10 -62 33 -115 50 -53 18 -132 49 -176 70 -44 21 -98 42 -120 47 -50
11 -134 8 -189 -8 -43 -12 -52 -18 -160 -113 -62 -55 -166 -122 -166 -108 0
10 94 237 134 326 77 168 179 363 204 390 26 29 31 30 108 30 74 0 86 3 164
42 47 23 88 42 92 43 4 0 46 -45 95 -99z m-231 -753 c14 -7 34 -26 44 -43 l19
-30 -62 -1 c-34 -1 -87 -9 -118 -18 -47 -14 -133 -15 -146 -3 -1 2 22 16 52
32 30 15 69 41 87 57 36 31 72 32 124 6z m54 -253 c0 -3 -44 -26 -97 -51 l-98
-45 -49 15 c-26 9 -64 16 -83 16 -33 0 -34 1 -19 22 14 20 24 21 138 23 111 1
174 8 187 21 6 6 21 5 21 -1z m-272 -294 c25 -15 -15 -41 -61 -40 -32 0 -37 2
-22 9 12 4 27 15 34 24 15 18 29 20 49 7z m7189 -237 l26 -21 -87 1 c-65 1
-89 5 -96 16 -17 27 -11 30 60 28 54 -2 77 -8 97 -24z m-1447 -580 c0 -3 -9
-18 -20 -34 -11 -17 -29 -43 -40 -60 -11 -16 -20 -33 -20 -39 0 -5 -17 -19
-37 -31 -35 -21 -42 -21 -103 -10 -36 7 -81 14 -100 17 -19 3 -48 16 -63 29
-16 13 -35 24 -43 24 -8 0 -14 3 -14 8 0 4 35 7 78 7 66 1 93 7 192 44 63 24
121 47 129 51 14 7 41 3 41 -6z m-4329 -152 c6 -15 5 -21 -1 -17 -16 10 -37
56 -44 95 -6 34 -5 34 15 -10 11 -25 25 -55 30 -68z m-3515 77 c38 -12 73 -24
78 -26 9 -6 -120 -93 -138 -93 -6 0 -33 7 -59 15 -68 20 -197 14 -269 -14 -32
-12 -63 -19 -70 -15 -7 4 -69 9 -139 10 -69 1 -135 6 -145 12 -11 6 -41 33
-67 60 l-49 50 49 -13 c49 -13 115 -12 278 1 50 4 158 8 240 9 83 1 164 7 180
13 41 14 35 15 111 -9z m-3952 -4 c19 -14 19 -15 0 -21 -10 -4 -21 -10 -24
-14 -3 -3 -33 -11 -67 -17 -40 -8 -82 -24 -118 -48 -59 -37 -68 -37 -100 2 -5
7 -33 25 -62 41 -44 24 -49 29 -35 38 9 6 80 11 157 12 77 1 154 6 170 11 42
13 57 12 79 -4z m11316 -7 c12 -8 11 -8 -3 -4 -10 3 -42 6 -70 7 -39 0 -47 3
-32 9 22 10 82 3 105 -12z m-2700 -156 c0 -5 -17 -17 -37 -26 -21 -9 -65 -42
-98 -73 -51 -47 -122 -92 -129 -81 -24 33 -55 113 -48 120 5 5 47 13 94 18 70
7 116 17 203 45 6 2 11 4 13 4 1 1 2 -3 2 -7z m-4722 -127 c50 1 92 0 92 -1 0
-2 -22 -49 -49 -107 -47 -101 -51 -105 -114 -145 -58 -36 -74 -42 -136 -45
-96 -5 -129 11 -220 112 -54 59 -85 84 -112 93 -32 9 -134 85 -119 89 29 6
131 5 195 -4 105 -13 198 -10 238 8 23 10 47 12 82 7 28 -4 92 -7 143 -7z
m4431 -420 c-10 -10 -22 -13 -34 -9 -18 7 -18 8 1 15 10 4 26 8 34 8 12 1 12
-1 -1 -14z m-4612 -1748 c2 -2 -2 -9 -10 -15 -10 -8 -16 -6 -25 8 -10 16 -9
18 10 15 11 -3 22 -6 25 -8z m-7 -332 c-1 -5 -7 -21 -14 -34 l-13 -23 -21 30
c-12 16 -22 32 -22 35 0 3 16 5 35 4 19 -1 35 -6 35 -12z"/>
</g>
</svg>
